#!OML:ASF H:\Terrain\Patient Classification 1\Animal2\Wednesday\Animal2.ASF
:FULLY-SPECIFIED
:DEGREES
1927
root 3.48931 13.7641 -10.4214 21.8868 -3.07199 6.40288
lowerback 36.7455 -1.13895 -0.0253346
upperback 7.26067 -1.73127 -2.50299
thorax -10.27 -0.765488 -1.97416
lowerneck 7.08666 6.42359 14.6003
upperneck -20.0525 6.58066 -25.861
head -5.44703 4.46167 -11.7017
rclavicle 4.96962e-015 3.97569e-016
rhumerus -14.2762 -17.8022 -31.2181
rradius 32.0201
rwrist -4.08634
rhand -6.75315 27.8121
rfingers 7.12502
rthumb 19.1082 -1.26922
lclavicle 4.96962e-015 3.97569e-016
lhumerus -26.9523 -11.5737 33.4085
lradius 28.8927
lwrist 37.3205
lhand -11.9783 27.4796
lfingers 7.12502
lthumb 14.0779 56.9828
rfemur -81.5406 -0.568554 7.39147
rtibia 94.5981
rfoot -37.6856 -9.10161
rtoes -1.08213
lfemur -87.6512 8.2989 -15.5825
ltibia 74.3728
lfoot -23.4164 11.9382
ltoes -15.8334
1928
root 3.48775 13.7639 -10.4517 21.5474 -3.02938 6.4587
lowerback 36.7881 -1.31299 0.159321
upperback 7.18548 -1.87877 -2.49169
thorax -10.3805 -0.836745 -1.99925
lowerneck 7.45806 6.46356 14.5414
upperneck -19.9662 6.66601 -25.93
head -5.47129 4.53 -11.7325
rclavicle -1.47101e-014 -1.74931e-014
rhumerus -14.4809 -17.9042 -29.3435
rradius 31.802
rwrist -4.08046
rhand -4.8133 27.8095
rfingers 7.12502
rthumb 20.9728 -1.07656
lclavicle -1.47101e-014 -1.74931e-014
lhumerus -27.7831 -10.6133 31.937
lradius 28.4295
lwrist 36.4257
lhand -11.4623 27.7321
lfingers 7.12502
lthumb 14.5751 57.2
rfemur -81.2935 -0.576561 7.33603
rtibia 94.587
rfoot -37.6125 -8.74104
rtoes -0.116471
lfemur -87.3313 8.31359 -15.4058
ltibia 75.0316
lfoot -23.5647 10.6727
ltoes -14.9534
1929
root 3.48327 13.7526 -10.4833 21.3551 -2.92928 6.45522
lowerback 36.5458 -1.43553 0.381869
upperback 7.05364 -1.94198 -2.42298
thorax -10.4476 -0.872788 -2.01939
lowerneck 8.11445 6.37596 14.7252
upperneck -19.8831 6.59687 -26.2358
head -5.56055 4.53804 -11.9241
rclavicle -3.37934e-015 -1.98785e-016
rhumerus -14.9419 -17.8173 -27.4296
rradius 31.3135
rwrist -3.04637
rhand -4.91324 29.0632
rfingers 7.12502
rthumb 20.8768 0.166525
lclavicle -3.37934e-015 -1.98785e-016
lhumerus -28.5146 -9.8052 30.4968
lradius 27.9068
lwrist 35.7824
lhand -11.4372 28.0766
lfingers 7.12502
lthumb 14.5993 57.5428
rfemur -81.2412 -0.593986 7.39623
rtibia 94.6638
rfoot -37.4061 -8.09553
rtoes 1.96706
lfemur -87.1577 8.35953 -15.1579
ltibia 75.7938
lfoot -23.368 9.756
ltoes -13.9659
1930
root 3.49685 13.7183 -10.5298 21.5841 -3.87211 6.2248
lowerback 35.9226 -1.09983 0.205917
upperback 6.84614 -1.61553 -2.51144
thorax -10.4394 -0.729116 -2.15678
lowerneck 8.38391 6.36061 14.8021
upperneck -19.6096 6.63946 -26.3145
head -5.51248 4.56565 -11.9626
rclavicle -2.28602e-014 -7.7526e-015
rhumerus -15.26 -18.6849 -25.5413
rradius 31.1863
rwrist -2.75843
rhand -2.36301 29.0629
rfingers 7.12502
rthumb 23.3252 0.456008
lclavicle -2.28602e-014 -7.7526e-015
lhumerus -29.2909 -9.26568 28.985
lradius 27.601
lwrist 35.6554
lhand -11.409 28.3844
lfingers 7.12502
lthumb 14.6264 57.8486
rfemur -82.221 0.0140123 7.3328
rtibia 94.7396
rfoot -36.8347 -5.57872
rtoes 8.1083
lfemur -87.5116 9.24056 -14.9079
ltibia 76.8694
lfoot -23.2939 9.31721
ltoes -13.3871
1931
root 3.50114 13.726 -10.5577 21.1291 -4.00518 6.56815
lowerback 35.8748 -1.17791 0.045273
upperback 6.85045 -1.78111 -2.5964
thorax -10.4228 -0.800398 -2.09745
lowerneck 8.51192 6.42442 14.6679
upperneck -19.4142 6.76071 -26.2286
head -5.46258 4.62856 -11.8932
rclavicle -1.23246e-014 -4.37326e-015
rhumerus -15.2851 -19.7387 -23.8055
rradius 31.0029
rwrist -2.31998
rhand 0.39681 28.5571
rfingers 7.12502
rthumb 25.9704 0.311466
lclavicle -1.23246e-014 -4.37326e-015
lhumerus -30.1197 -8.53671 27.394
lradius 27.3781
lwrist 35.2559
lhand -10.925 28.5989
lfingers 7.12502
lthumb 15.0927 58.0287
rfemur -81.9152 -0.065697 6.98408
rtibia 94.7205
rfoot -36.5913 -6.91854
rtoes 3.11073
lfemur -86.8159 9.17562 -14.836
ltibia 77.869
lfoot -23.5282 8.78755
ltoes -14.746
1932
root 3.50918 13.7164 -10.5794 20.8988 -4.28262 6.81669
lowerback 35.5603 -1.17128 -0.1662
upperback 6.82491 -1.85154 -2.61759
thorax -10.3322 -0.829569 -1.9833
lowerneck 8.86832 6.44371 14.7102
upperneck -19.3304 6.81262 -26.4143
head -5.48067 4.68235 -11.9893
rclavicle -6.75868e-015 -1.05356e-014
rhumerus -15.3296 -20.2896 -22.016
rradius 30.9508
rwrist -2.18706
rhand 2.49285 28.2166
rfingers 7.12502
rthumb 27.9758 0.28135
lclavicle -6.75868e-015 -1.05356e-014
lhumerus -30.8168 -7.53145 25.7969
lradius 26.9616
lwrist 34.4792
lhand -10.5823 28.5631
lfingers 7.12502
lthumb 15.4228 57.9678
rfemur -81.9413 -0.0964357 6.67821
rtibia 94.7674
rfoot -36.5739 -7.70717
rtoes 0.460919
lfemur -86.3375 9.27781 -14.6954
ltibia 79.0264
lfoot -23.6996 8.93203
ltoes -17.5371
1933
root 3.51902 13.7052 -10.6055 20.7611 -4.48044 6.81804
lowerback 35.1996 -1.1861 -0.0758019
upperback 6.76012 -1.83982 -2.6145
thorax -10.3939 -0.829893 -2.02193
lowerneck 9.36032 6.41688 14.807
upperneck -19.1255 6.84714 -26.551
head -5.49325 4.72298 -12.0768
rclavicle 1.98785e-014 1.41137e-014
rhumerus -15.5566 -20.7025 -20.1197
rradius 30.9787
rwrist -2.38175
rhand 4.32696 28.036
rfingers 7.12502
rthumb 29.7278 0.399802
lclavicle 1.98785e-014 1.41137e-014
lhumerus -31.3262 -6.76868 24.1765
lradius 26.4634
lwrist 33.7553
lhand -10.4804 28.7164
lfingers 7.12502
lthumb 15.521 58.1134
rfemur -82.0161 -0.0595043 6.6612
rtibia 94.8274
rfoot -36.4987 -7.21245
rtoes 1.63526
lfemur -85.9892 9.41744 -14.2697
ltibia 80.2906
lfoot -23.7026 8.9811
ltoes -18.4136
1934
root 3.53176 13.6923 -10.6315 20.6426 -4.60933 6.77267
lowerback 34.8047 -1.22469 0.13989
upperback 6.66159 -1.80915 -2.58133
thorax -10.3605 -0.824296 -2.117
lowerneck 9.88317 6.33126 14.8949
upperneck -19.0829 6.77652 -26.6836
head -5.58564 4.71742 -12.1805
rclavicle -2.18663e-015 -3.97569e-016
rhumerus -15.7014 -21.7408 -18.2056
rradius 30.8343
rwrist -2.23341
rhand 6.26919 27.7623
rfingers 7.12502
rthumb 31.5798 0.472995
lclavicle -2.18663e-015 -3.97569e-016
lhumerus -31.6472 -5.8588 22.5185
lradius 25.8308
lwrist 32.8219
lhand -10.2974 29.0826
lfingers 7.12502
lthumb 15.6972 58.4659
rfemur -82.1142 -0.0727796 6.6782
rtibia 94.9221
rfoot -36.4072 -4.93281
rtoes 7.7544
lfemur -85.6533 9.53132 -13.7934
ltibia 81.7273
lfoot -23.4218 8.6379
ltoes -18.9496
1935
root 3.54753 13.6711 -10.6517 20.5199 -4.72713 6.67143
lowerback 34.3168 -1.26183 0.35691
upperback 6.61654 -1.77075 -2.50517
thorax -10.2276 -0.814959 -2.17139
lowerneck 10.4631 6.18072 15.2355
upperneck -19.2575 6.58786 -27.1214
head -5.75263 4.67064 -12.4798
rclavicle 5.1684e-015 -1.45113e-014
rhumerus -15.747 -22.8126 -16.3501
rradius 30.5491
rwrist -1.70534
rhand 7.60299 27.6044
rfingers 7.12502
rthumb 32.8495 0.572545
lclavicle 5.1684e-015 -1.45113e-014
lhumerus -32.0154 -4.57283 20.7216
lradius 25.2453
lwrist 31.7371
lhand -10.021 29.1993
lfingers 7.12502
lthumb 15.9634 58.5615
rfemur -82.203 -0.0816635 6.73719
rtibia 95.0405
rfoot -36.2354 -6.51364
rtoes 2.16202
lfemur -85.2701 9.71361 -13.272
ltibia 83.2742
lfoot -23.2052 8.51554
ltoes -19.9414
1936
root 3.55892 13.6528 -10.6717 20.3695 -4.86248 6.56422
lowerback 33.9315 -1.2921 0.463191
upperback 6.51513 -1.76932 -2.45845
thorax -10.1942 -0.819986 -2.18263
lowerneck 10.8689 6.1676 15.3235
upperneck -19.0778 6.63431 -27.2414
head -5.75537 4.71324 -12.557
rclavicle -4.57205e-015 1.17283e-014
rhumerus -15.7993 -23.3077 -14.6369
rradius 30.4798
rwrist -1.41885
rhand 8.79568 27.4072
rfingers 7.12502
rthumb 33.9832 0.619672
lclavicle -4.57205e-015 1.17283e-014
lhumerus -32.5737 -3.87549 18.9535
lradius 24.9622
lwrist 31.2182
lhand -9.8925 29.2421
lfingers 7.12502
lthumb 16.0872 58.5944
rfemur -82.2658 0.00956663 6.83241
rtibia 95.1343
rfoot -35.7315 -7.0865
rtoes -0.40718
lfemur -84.7791 9.90301 -12.6201
ltibia 84.799
lfoot -23.2869 8.4295
ltoes -20.5574
1937
root 3.56663 13.646 -10.6922 20.1414 -5.14402 6.76682
lowerback 33.6859 -1.28079 0.185377
upperback 6.39355 -1.8606 -2.51093
thorax -10.233 -0.857668 -2.05691
lowerneck 10.8237 6.41183 14.7233
upperneck -18.3936 7.03926 -26.7318
head -5.50633 4.89079 -12.1701
rclavicle 1.15295e-014 5.36719e-015
rhumerus -15.5695 -24.1255 -13.1196
rradius 30.5703
rwrist -0.981479
rhand 10.642 26.9207
rfingers 7.12502
rthumb 35.735 0.539518
lclavicle 1.15295e-014 5.36719e-015
lhumerus -33.2967 -3.59808 17.2987
lradius 24.7914
lwrist 30.955
lhand -9.95626 29.2536
lfingers 7.12502
lthumb 16.0258 58.6108
rfemur -82.241 0.142826 6.54101
rtibia 95.1862
rfoot -35.4558 -7.19575
rtoes -1.19027
lfemur -84.0386 10.023 -12.1975
ltibia 86.2208
lfoot -23.4104 7.82634
ltoes -20.3797
1938
root 3.57956 13.6358 -10.7127 19.9857 -5.39994 6.94004
lowerback 33.3333 -1.28418 0.0103365
upperback 6.28337 -1.93164 -2.55182
thorax -10.2177 -0.888687 -1.98305
lowerneck 11.8636 6.23331 15.0187
upperneck -19.1771 6.78013 -27.0462
head -5.96813 4.84004 -12.5029
rclavicle 1.68967e-014 1.61016e-014
rhumerus -14.0358 -22.9802 -11.0422
rradius 29.5015
rwrist -2.60164
rhand 12.586 26.3091
rfingers 7.12502
rthumb 37.5748 0.39542
lclavicle 1.68967e-014 1.61016e-014
lhumerus -33.8495 -3.20379 15.624
lradius 24.5018
lwrist 30.6549
lhand -10.0125 29.0797
lfingers 7.12502
lthumb 15.9716 58.4413
rfemur -82.2766 0.250809 6.21967
rtibia 95.27
rfoot -35.2756 -7.02344
rtoes -1.06842
lfemur -83.3157 10.1221 -11.726
ltibia 87.6373
lfoot -23.3393 6.68518
ltoes -18.6334
